<?xml version="1.0" encoding="utf-8"?>
<!-- Generator: Adobe Illustrator 24.0.1, SVG Export Plug-In . SVG Version: 6.00 Build 0)  -->
<svg version="1.1" id="Layer_1" xmlns="http://www.w3.org/2000/svg" xmlns:xlink="http://www.w3.org/1999/xlink" x="0px" y="0px"
	 viewBox="0 0 313 39" style="enable-background:new 0 0 313 39;" xml:space="preserve">
<style type="text/css">
	.st0{fill:#4CB166;}
</style>
<path d="M22.6,15.9h-5c-0.1-0.6-0.3-1.2-0.6-1.7c-0.3-0.5-0.6-0.9-1.1-1.3c-0.4-0.4-0.9-0.6-1.5-0.8c-0.6-0.2-1.2-0.3-1.9-0.3
	c-1.2,0-2.3,0.3-3.1,0.9c-0.9,0.6-1.6,1.5-2.1,2.6c-0.5,1.1-0.7,2.5-0.7,4.1c0,1.7,0.2,3.1,0.7,4.2c0.5,1.1,1.2,2,2.1,2.6
	c0.9,0.6,1.9,0.9,3.1,0.9c0.7,0,1.3-0.1,1.8-0.3c0.6-0.2,1.1-0.4,1.5-0.8c0.4-0.3,0.8-0.8,1.1-1.2c0.3-0.5,0.5-1,0.6-1.7l5,0
	c-0.1,1.1-0.5,2.1-1,3.1c-0.5,1-1.2,1.9-2.1,2.6c-0.9,0.8-1.9,1.4-3.1,1.8c-1.2,0.4-2.5,0.7-4,0.7c-2.1,0-3.9-0.5-5.6-1.4
	C5.3,29,4,27.6,3,25.8c-0.9-1.8-1.4-3.9-1.4-6.5c0-2.5,0.5-4.7,1.4-6.5s2.2-3.1,3.9-4.1c1.6-0.9,3.5-1.4,5.5-1.4
	c1.3,0,2.6,0.2,3.8,0.6c1.2,0.4,2.2,0.9,3.1,1.7c0.9,0.7,1.6,1.6,2.2,2.6C22,13.3,22.4,14.5,22.6,15.9z M30.9,20.9V31H26V7.7h4.7
	v8.9h0.2c0.4-1,1-1.8,1.9-2.4c0.9-0.6,2-0.9,3.3-0.9c1.2,0,2.3,0.3,3.2,0.8c0.9,0.5,1.6,1.3,2.1,2.3c0.5,1,0.8,2.1,0.8,3.5V31h-4.8
	V20.8c0-1.1-0.3-1.9-0.8-2.5c-0.5-0.6-1.3-0.9-2.3-0.9c-0.7,0-1.2,0.1-1.8,0.4C32,18,31.6,18.5,31.3,19C31,19.5,30.9,20.2,30.9,20.9
	z M51,31.3c-1.1,0-2.1-0.2-3-0.6c-0.9-0.4-1.6-1-2.1-1.7c-0.5-0.8-0.8-1.7-0.8-2.9c0-1,0.2-1.8,0.5-2.4c0.4-0.7,0.8-1.2,1.5-1.6
	c0.6-0.4,1.3-0.7,2.1-0.9c0.8-0.2,1.6-0.3,2.5-0.4c1-0.1,1.8-0.2,2.5-0.3c0.6-0.1,1.1-0.2,1.4-0.4c0.3-0.2,0.4-0.5,0.4-0.8v-0.1
	c0-0.7-0.2-1.3-0.7-1.7c-0.4-0.4-1.1-0.6-1.9-0.6c-0.9,0-1.6,0.2-2.1,0.6c-0.5,0.4-0.9,0.9-1,1.4l-4.5-0.4c0.2-1.1,0.7-2,1.3-2.8
	c0.7-0.8,1.5-1.4,2.6-1.8c1.1-0.4,2.3-0.6,3.7-0.6c1,0,1.9,0.1,2.8,0.3c0.9,0.2,1.7,0.6,2.4,1.1c0.7,0.5,1.2,1.1,1.6,1.8
	c0.4,0.7,0.6,1.6,0.6,2.7V31h-4.6v-2.4h-0.1c-0.3,0.5-0.7,1-1.1,1.4c-0.5,0.4-1,0.7-1.7,1C52.6,31.2,51.8,31.3,51,31.3z M52.3,28
	c0.7,0,1.3-0.1,1.9-0.4c0.5-0.3,1-0.7,1.3-1.2c0.3-0.5,0.5-1,0.5-1.6v-1.9c-0.2,0.1-0.4,0.2-0.6,0.3c-0.3,0.1-0.5,0.1-0.9,0.2
	c-0.3,0.1-0.7,0.1-1,0.2c-0.3,0-0.6,0.1-0.9,0.1c-0.6,0.1-1.1,0.2-1.5,0.4c-0.4,0.2-0.8,0.4-1,0.7c-0.2,0.3-0.4,0.7-0.4,1.1
	c0,0.7,0.2,1.2,0.7,1.5C51,27.8,51.6,28,52.3,28z M64.5,31V13.5h4.6v3.1h0.2c0.4-1,1-1.8,1.8-2.4c0.8-0.6,1.9-0.9,3-0.9
	c1.2,0,2.2,0.3,3.1,0.9c0.8,0.6,1.4,1.4,1.7,2.4h0.2c0.4-1,1-1.8,1.9-2.4c0.9-0.6,2-0.9,3.3-0.9c1.6,0,3,0.5,4,1.6
	c1,1,1.5,2.5,1.5,4.4V31h-4.8V20.2c0-1-0.3-1.7-0.8-2.2c-0.5-0.5-1.2-0.7-1.9-0.7c-0.9,0-1.6,0.3-2.1,0.8c-0.5,0.6-0.7,1.3-0.7,2.2
	V31h-4.7V20.1c0-0.9-0.2-1.5-0.7-2c-0.5-0.5-1.1-0.8-1.9-0.8c-0.5,0-1,0.1-1.5,0.4c-0.4,0.3-0.8,0.6-1,1.1c-0.2,0.5-0.4,1-0.4,1.7
	V31H64.5z M101.7,31.3c-1.8,0-3.3-0.4-4.6-1.1c-1.3-0.7-2.3-1.8-3-3.1c-0.7-1.3-1-2.9-1-4.8c0-1.8,0.3-3.4,1-4.7
	c0.7-1.4,1.7-2.4,2.9-3.2c1.3-0.8,2.8-1.1,4.5-1.1c1.2,0,2.2,0.2,3.2,0.6c1,0.4,1.9,0.9,2.6,1.6c0.8,0.7,1.3,1.7,1.8,2.8
	c0.4,1.1,0.6,2.4,0.6,3.9v1.3H95v-3h10.2c0-0.7-0.2-1.3-0.5-1.9c-0.3-0.5-0.7-1-1.3-1.3c-0.5-0.3-1.1-0.5-1.9-0.5
	c-0.7,0-1.4,0.2-2,0.5c-0.6,0.3-1,0.8-1.3,1.4c-0.3,0.6-0.5,1.2-0.5,1.9v2.9c0,0.9,0.2,1.6,0.5,2.2c0.3,0.6,0.8,1.1,1.4,1.5
	c0.6,0.3,1.3,0.5,2.1,0.5c0.5,0,1-0.1,1.5-0.2s0.8-0.4,1.1-0.7c0.3-0.3,0.6-0.7,0.7-1.1l4.5,0.3c-0.2,1.1-0.7,2-1.4,2.8
	c-0.7,0.8-1.6,1.4-2.7,1.9C104.4,31.1,103.1,31.3,101.7,31.3z M117.7,7.7V31h-4.8V7.7H117.7z M129.5,31.3c-1.8,0-3.3-0.4-4.6-1.1
	c-1.3-0.7-2.3-1.8-3-3.1c-0.7-1.3-1-2.9-1-4.8c0-1.8,0.3-3.4,1-4.7s1.7-2.4,2.9-3.2c1.3-0.8,2.8-1.1,4.5-1.1c1.2,0,2.2,0.2,3.2,0.6
	c1,0.4,1.9,0.9,2.6,1.6c0.8,0.7,1.3,1.7,1.8,2.8c0.4,1.1,0.6,2.4,0.6,3.9v1.3h-14.7v-3H133c0-0.7-0.2-1.3-0.5-1.9
	c-0.3-0.5-0.7-1-1.3-1.3c-0.5-0.3-1.1-0.5-1.9-0.5c-0.7,0-1.4,0.2-2,0.5c-0.6,0.3-1,0.8-1.3,1.4c-0.3,0.6-0.5,1.2-0.5,1.9v2.9
	c0,0.9,0.2,1.6,0.5,2.2c0.3,0.6,0.8,1.1,1.4,1.5c0.6,0.3,1.3,0.5,2.1,0.5c0.5,0,1-0.1,1.5-0.2s0.8-0.4,1.1-0.7
	c0.3-0.3,0.6-0.7,0.7-1.1l4.5,0.3c-0.2,1.1-0.7,2-1.4,2.8c-0.7,0.8-1.6,1.4-2.7,1.9C132.2,31.1,131,31.3,129.5,31.3z M148.6,31.3
	c-1.8,0-3.3-0.4-4.6-1.1c-1.3-0.8-2.3-1.8-3-3.2c-0.7-1.4-1-2.9-1-4.7c0-1.8,0.3-3.4,1-4.7c0.7-1.4,1.7-2.4,3-3.2
	c1.3-0.8,2.8-1.1,4.6-1.1s3.3,0.4,4.6,1.1c1.3,0.8,2.3,1.8,3,3.2c0.7,1.3,1,2.9,1,4.7c0,1.8-0.3,3.4-1,4.7c-0.7,1.3-1.7,2.4-3,3.2
	C151.9,31,150.3,31.3,148.6,31.3z M148.6,27.6c0.8,0,1.5-0.2,2-0.7c0.5-0.5,0.9-1.1,1.2-1.9c0.3-0.8,0.4-1.7,0.4-2.7
	c0-1-0.1-1.9-0.4-2.7c-0.3-0.8-0.7-1.4-1.2-1.9c-0.5-0.5-1.2-0.7-2-0.7c-0.8,0-1.5,0.2-2,0.7c-0.5,0.5-1,1.1-1.2,1.9
	c-0.3,0.8-0.4,1.7-0.4,2.7c0,1,0.1,1.9,0.4,2.7c0.3,0.8,0.7,1.4,1.2,1.9C147.1,27.4,147.8,27.6,148.6,27.6z M165.2,20.9V31h-4.8
	V13.5h4.6v3.1h0.2c0.4-1,1-1.8,1.9-2.4c0.9-0.6,2-0.9,3.3-0.9c1.2,0,2.3,0.3,3.2,0.8c0.9,0.5,1.6,1.3,2.1,2.3c0.5,1,0.8,2.1,0.8,3.5
	V31h-4.8V20.8c0-1.1-0.3-1.9-0.8-2.5c-0.6-0.6-1.3-0.9-2.3-0.9c-0.7,0-1.2,0.1-1.7,0.4c-0.5,0.3-0.9,0.7-1.2,1.2
	C165.3,19.5,165.2,20.2,165.2,20.9z"/>
<path class="st0" d="M187.7,31V7.7h15.7v4.1h-10.8v5.5h10v4.1h-10v5.6h10.8V31H187.7z M211.5,7.7l5.6,17.7h0.2L223,7.7h5.5l-8,23.3
	h-6.3l-8-23.3H211.5z M250.5,15.9h-5c-0.1-0.6-0.3-1.2-0.6-1.7c-0.3-0.5-0.6-0.9-1.1-1.3c-0.4-0.4-0.9-0.6-1.5-0.8
	c-0.6-0.2-1.2-0.3-1.9-0.3c-1.2,0-2.3,0.3-3.1,0.9c-0.9,0.6-1.6,1.5-2.1,2.6c-0.5,1.1-0.7,2.5-0.7,4.1c0,1.7,0.2,3.1,0.7,4.2
	c0.5,1.1,1.2,2,2.1,2.6c0.9,0.6,1.9,0.9,3.1,0.9c0.7,0,1.3-0.1,1.8-0.3c0.6-0.2,1.1-0.4,1.5-0.8c0.4-0.3,0.8-0.8,1.1-1.2
	c0.3-0.5,0.5-1,0.6-1.7l5,0c-0.1,1.1-0.5,2.1-1,3.1c-0.5,1-1.2,1.9-2.1,2.6c-0.9,0.8-1.9,1.4-3.1,1.8c-1.2,0.4-2.5,0.7-4,0.7
	c-2.1,0-3.9-0.5-5.6-1.4c-1.6-0.9-2.9-2.3-3.9-4.1c-0.9-1.8-1.4-3.9-1.4-6.5c0-2.5,0.5-4.7,1.4-6.5c1-1.8,2.2-3.1,3.9-4.1
	c1.6-0.9,3.5-1.4,5.5-1.4c1.3,0,2.6,0.2,3.8,0.6c1.2,0.4,2.2,0.9,3.1,1.7c0.9,0.7,1.6,1.6,2.2,2.6C250,13.3,250.3,14.5,250.5,15.9z
	 M254,31V7.7h15.4v4.1h-10.5v5.5h9.5v4.1h-9.5V31H254z M272.7,31V7.7h4.9v19.2h10V31H272.7z M311.4,19.4c0,2.5-0.5,4.7-1.4,6.5
	c-1,1.8-2.3,3.1-3.9,4.1c-1.6,0.9-3.5,1.4-5.5,1.4c-2.1,0-3.9-0.5-5.6-1.4c-1.6-0.9-2.9-2.3-3.9-4.1c-1-1.8-1.4-3.9-1.4-6.5
	c0-2.5,0.5-4.7,1.4-6.5c1-1.8,2.3-3.1,3.9-4.1c1.6-0.9,3.5-1.4,5.6-1.4c2.1,0,3.9,0.5,5.5,1.4c1.7,0.9,3,2.3,3.9,4.1
	C310.9,14.7,311.4,16.8,311.4,19.4z M306.4,19.4c0-1.6-0.2-3-0.7-4.2c-0.5-1.1-1.2-2-2.1-2.6c-0.9-0.6-1.9-0.9-3.1-0.9
	c-1.2,0-2.2,0.3-3.1,0.9c-0.9,0.6-1.6,1.4-2.1,2.6c-0.5,1.1-0.7,2.5-0.7,4.2c0,1.6,0.2,3,0.7,4.2c0.5,1.1,1.2,2,2.1,2.6
	c0.9,0.6,1.9,0.9,3.1,0.9c1.2,0,2.2-0.3,3.1-0.9c0.9-0.6,1.6-1.4,2.1-2.6C306.1,22.4,306.4,21,306.4,19.4z"/>
</svg>
